<?xml version="1.0" encoding="utf-8"?>
<!-- Generator: Adobe Illustrator 27.9.0, SVG Export Plug-In . SVG Version: 6.00 Build 0)  -->
<svg version="1.1" id="圖層_1" xmlns="http://www.w3.org/2000/svg" xmlns:xlink="http://www.w3.org/1999/xlink" x="0px" y="0px"
	 viewBox="0 0 404.1 362.1" style="enable-background:new 0 0 404.1 362.1;" xml:space="preserve">
<style type="text/css">
	.st0{fill:url(#SVGID_1_);}
	.st1{fill:url(#SVGID_00000180331550330956303530000005259615633426515600_);}
	.st2{fill:url(#SVGID_00000065761167598594781620000004206856588108624292_);}
	.st3{fill:#F9FBFC;}
	.st4{opacity:0.2;fill:#009F4D;}
	.st5{fill:#FBD15B;}
	.st6{fill:#BC4991;}
	.st7{fill:#FFFFFF;}
	.st8{fill:#D1D3D4;}
	.st9{opacity:0.25;fill:#063D3D;}
	.st10{fill:#EED7BA;}
	.st11{fill:#F8A971;}
	.st12{fill:#EF5F7A;}
	.st13{fill:#4A4157;}
	.st14{fill:#D0DADD;}
	.st15{fill:#39263D;}
	.st16{fill:#0CB9C1;}
	.st17{fill:#184D00;}
	.st18{fill:#399A0F;}
	.st19{fill:#F79663;}
	.st20{fill:#DFE7EA;}
</style>
<linearGradient id="SVGID_1_" gradientUnits="userSpaceOnUse" x1="37.1" y1="145.65" x2="403.8" y2="145.65">
	<stop  offset="0" style="stop-color:#009F4D"/>
	<stop  offset="1" style="stop-color:#0389FF"/>
</linearGradient>
<path class="st0" d="M403.8,46.3h-9.2v-6.7h-8.7L316.5,2.3l-0.3,0.6l68.1,36.7h-10.5v6.7h-8.3v-7h-3L316.3,4.2l-0.1,0.1V2.9V2.5
	c0-1.4-1.1-2.5-2.5-2.5c-1.4,0-2.5,1.2-2.5,2.6v0l-0.1-0.4L165.4,34.7l0.1,0.5H44.6l-7.5,15.5h3.1c9.8,2.9,59.7,17,88.4,17
	c32.3,0,79.2-5.9,102.4-16.8l-0.1-0.2h2.1v3.2h2.3l0.6,48.6l0.1,5.9h2.3c0,0.1,0.1,0.1,0.2,0.1c0.9,0,1.6,0.7,1.6,1.6
	c0,0.9-0.7,1.6-1.6,1.6s-1.6-0.7-1.6-1.6V110c0-0.2-0.2-0.3-0.4-0.3s-0.3,0.2-0.3,0.4c0,1.3,1,2.3,2.3,2.3c1.1,0,2.1-1,2.2-2
	c0-0.8-0.3-1.5-0.9-2h1.7l0.7-54.5h2.3v-3.2h63.1l-0.1-0.2h44v15.2h1.4v6.2l-0.9,7.2h-1v11.3l-0.2,0.1l0.2,0.1v15.9l-0.2,0.1
	l0.2,0.1v15.9l-0.2,0.1l0.2,0.1v15.9l-0.2,0.1l0.2,0.1v15.9l-0.2,0.1l0.2,0.1v15.9l-0.2,0.1l0.2,0.1V187l-0.2,0.1l0.2,0.1V203
	l-0.2,0.1l0.2,0.1V219l-0.2,0.1l0.2,0.1v15.9l-0.2,0.1l0.2,0.1v15.9l-0.2,0.1l0.2,0.1v25.5h-8.3v14.4h32.2v-14.4h-8.4v-17.5h0.1
	l-0.1-0.1v-16l0.1-0.1l-0.1-0.1v-16l0.1-0.1l-0.1-0.1v-16l0.1-0.1l-0.1-0.1v-16l0.1-0.1l-0.1-0.1V179l0.1-0.1l-0.1-0.1v-16l0.1-0.1
	l-0.1-0.1v-16l0.1-0.1l-0.1-0.1v-16l0.1-0.1l-0.1-0.1v-16l0.1-0.1l-0.1-0.1V98l0.1-0.1l-0.1-0.1V79.1h-1.1l-0.9-7.2h-0.1v-6.2h1.5
	V50.5h7.9v10.3h20.8V50.5h9.2V46.3z M240.9,102.5h-4.1L236,53.9h5.5L240.9,102.5z M352.8,252.7l10.4,6.7l-10.4,6.8V252.7z
	 M352.8,250v-13.5l10.4,6.8L352.8,250z M354.1,251.3l10.5-6.8v13.6L354.1,251.3z M354.1,235.2l10.5-6.8V242L354.1,235.2z M352.8,234
	v-13.6l10.4,6.8L352.8,234z M354.1,219.1l10.5-6.8v13.6L354.1,219.1z M352.8,218v-13.6l10.4,6.8L352.8,218z M354.1,203.1l10.5-6.8
	v13.6L354.1,203.1z M352.8,201.8v-13.5l10.4,6.7L352.8,201.8z M354.1,187l10.5-6.8v13.6L354.1,187z M352.8,185.8v-13.6l10.4,6.8
	L352.8,185.8z M354.1,170.9l10.5-6.8v13.6L354.1,170.9z M352.8,169.7v-13.6l10.4,6.8L352.8,169.7z M354.1,154.8l10.5-6.8v13.6
	L354.1,154.8z M352.8,153.6V140l10.4,6.8L352.8,153.6z M354.1,138.7l10.5-6.8v13.6L354.1,138.7z M352.8,137.5v-13.6l10.4,6.8
	L352.8,137.5z M354.1,122.6l10.5-6.8v13.6L354.1,122.6z M352.8,121.5v-13.6l10.4,6.8L352.8,121.5z M354.1,106.6l10.5-6.8v13.6
	L354.1,106.6z M363.2,98.6l-10.4,6.8V91.8L363.2,98.6z M354.1,90.5l10.5-6.8v13.6L354.1,90.5z M364.7,276.9h-11.9l0-9l0.2,0.3
	l11.7-7.6V276.9z M364.7,82.1l-0.3-0.4l-11.6,7.5v-8.3h11.9V82.1z M361.2,39.3h-10.1v7h-29.4L320.2,31v-0.5l-0.1,0l0-0.1l-1-10
	l0.1,0v-0.6l-0.2-0.1L318,9h-1.8V5.1L361.2,39.3z M319.7,45.2l-11.1-6.9l9.9-6.2l0,0.1L319.7,45.2L319.7,45.2L319.7,45.2z
	 M317.5,21.3L317.5,21.3l0.8,8.3l0,0h0l-8.3-4.1L317.5,21.3z M316.6,11.1L316.6,11.1l0.7,7.5l-0.1-0.1l-6.3-3.7l5.6-3.7L316.6,11.1z
	 M315,10.9l-4.2,2.8l0.3-2.8H315z M309.8,24.3l0.8-8.3l6.8,4v0.1L309.8,24.3l0,0.1L309.8,24.3z M309.6,26.6L309.6,26.6l8.8,4.2
	l0,0.1l-9.8,6.1L309.6,26.6z M308.4,39.5l11.2,6.8h-11.8L308.4,39.5z M311.2,3v6h-2l-0.6,5.9l-1,10.4v0.3l-1.2,12.5v0.2l-0.9,9.2
	l-8.1-12.3h-62.8l76.5-30.7l-0.3-0.6l-78.1,31.4h-66.1L311.2,3z M171,37.1h16.6l-8,10.6L171,37.1z M178,48.9h-16.5l8.1-10.7
	L178,48.9z M189,38.2l8.4,10.7H181L189,38.2z M190.4,37.1H207l-8.3,10.6L190.4,37.1z M208.4,38.2l8.4,10.7h-16.4L208.4,38.2z
	 M209.8,37.1h17l-8.3,10.6L209.8,37.1z M227.8,38.2l8.4,10.7h-16.4L227.8,38.2z M229.2,37.1h16.6l-8.3,10.6L229.2,37.1z M168.2,37.1
	l-8.3,10.6l-8.3-10.6H168.2z M158.6,48.9h-16.5l8.1-10.7L158.6,48.9z M149,37.1l-8.3,10.6l-8.5-10.6H149z M139.2,48.9h-16.6
	l8.2-10.7L139.2,48.9z M129.4,37.1l-8.3,10.6l-8.3-10.6H129.4z M119.8,48.9h-16.6l8.2-10.7L119.8,48.9z M110,37.1l-8.3,10.6
	l-8.3-10.6H110z M100.4,48.9H83.7L92,38.2L100.4,48.9z M90.7,37.1l-8.3,10.6L74,37.1H90.7z M81,48.9H64.3l8.3-10.7L81,48.9z
	 M71.3,37.1L63,47.7l-8.4-10.6H71.3z M61.6,48.9H44.8l8.4-10.7L61.6,48.9z M45.8,37h6l-9,11.5l0.4,0.3h-3.1L45.8,37z M128.6,67
	c-26.8,0-72-12.3-85.8-16.3h186.8C206,61.3,160.3,67,128.6,67z M239.3,48.9l7.9-10.7l8.8,10.7H239.3z M248.6,37.1h16.6l-8.3,10.6
	L248.6,37.1z M258.7,48.9l7.9-10.7l8.4,10.7H258.7z M268,37.1h16.6l-8.3,10.6L268,37.1z M278.2,48.9l7.8-10.7l8.4,10.7H278.2z
	 M296.5,48.9l0.4-0.3l-9-11.5h8.5l7.9,11.8H296.5z"/>
<linearGradient id="SVGID_00000103945183847254541680000008554458256537561242_" gradientUnits="userSpaceOnUse" x1="65.9" y1="210.5" x2="336.4" y2="210.5">
	<stop  offset="0" style="stop-color:#009F4D"/>
	<stop  offset="1" style="stop-color:#0389FF"/>
</linearGradient>
<path style="fill:url(#SVGID_00000103945183847254541680000008554458256537561242_);" d="M73.1,126.2h256.1c4,0,7.2,3.2,7.2,7.2
	v154.2c0,4-3.2,7.2-7.2,7.2H73.1c-4,0-7.2-3.2-7.2-7.2V133.4C65.9,129.5,69.1,126.2,73.1,126.2z"/>
<linearGradient id="SVGID_00000119833001061115204560000007915967389918997694_" gradientUnits="userSpaceOnUse" x1="65.2" y1="210.5" x2="337.2" y2="210.5">
	<stop  offset="0" style="stop-color:#009F4D"/>
	<stop  offset="1" style="stop-color:#0389FF"/>
</linearGradient>
<path style="fill:url(#SVGID_00000119833001061115204560000007915967389918997694_);" d="M326.2,295.5h-250c-6.1,0-11-4.9-11-11
	v-148c0-6.1,4.9-11,11-11h250c6.1,0,11,4.9,11,11v148.1C337.1,290.6,332.2,295.5,326.2,295.5z M76.2,127c-5.3,0-9.5,4.3-9.5,9.5v148
	c0,5.3,4.3,9.5,9.5,9.5h250c5.3,0,9.5-4.3,9.5-9.5v-148c0-5.3-4.3-9.5-9.5-9.5H76.2z"/>
<rect x="73.3" y="146.8" class="st3" width="255.7" height="140.6"/>
<rect x="84.2" y="156.7" class="st4" width="60.2" height="119.8"/>
<rect x="90.8" y="247.5" class="st3" width="23.6" height="23.6"/>
<rect x="156.9" y="156.7" class="st4" width="60.2" height="50.1"/>
<circle class="st3" cx="165.4" cy="165.1" r="2.9"/>
<circle class="st3" cx="176.2" cy="165.1" r="2.9"/>
<circle class="st3" cx="187" cy="165.1" r="2.9"/>
<circle class="st3" cx="197.8" cy="165.1" r="2.9"/>
<circle class="st3" cx="208.6" cy="165.1" r="2.9"/>
<circle class="st3" cx="165.4" cy="187.4" r="2.9"/>
<circle class="st3" cx="176.2" cy="187.4" r="2.9"/>
<circle class="st3" cx="187" cy="187.4" r="2.9"/>
<circle class="st3" cx="197.8" cy="187.4" r="2.9"/>
<circle class="st3" cx="208.6" cy="187.4" r="2.9"/>
<circle class="st3" cx="165.4" cy="176.2" r="2.9"/>
<circle class="st3" cx="176.2" cy="176.2" r="2.9"/>
<circle class="st3" cx="187" cy="176.2" r="2.9"/>
<circle class="st3" cx="197.8" cy="176.2" r="2.9"/>
<circle class="st3" cx="208.6" cy="176.2" r="2.9"/>
<circle class="st3" cx="165.4" cy="198.5" r="2.9"/>
<circle class="st3" cx="176.2" cy="198.5" r="2.9"/>
<circle class="st3" cx="187" cy="198.5" r="2.9"/>
<circle class="st3" cx="197.8" cy="198.5" r="2.9"/>
<circle class="st3" cx="208.6" cy="198.5" r="2.9"/>
<rect x="156.9" y="226.4" class="st4" width="60.2" height="50.1"/>
<circle class="st3" cx="165.4" cy="234.7" r="2.9"/>
<circle class="st3" cx="176.2" cy="234.7" r="2.9"/>
<circle class="st3" cx="187" cy="234.7" r="2.9"/>
<circle class="st3" cx="197.8" cy="234.7" r="2.9"/>
<circle class="st3" cx="208.6" cy="234.7" r="2.9"/>
<path class="st3" d="M168.4,257c0,1.6-1.3,2.9-3,2.9s-2.9-1.3-2.9-3c0-1.6,1.3-2.9,3-2.9l0,0C167,254,168.4,255.4,168.4,257
	L168.4,257z"/>
<path class="st3" d="M179.2,257c0,1.6-1.3,3-2.9,3s-2.9-1.3-2.9-3c0-1.6,1.3-2.9,2.9-2.9l0,0C177.8,254.1,179.2,255.4,179.2,257z"/>
<path class="st3" d="M190,257c0,1.6-1.3,2.9-2.9,2.9s-2.9-1.3-2.9-2.9s1.3-2.9,2.9-2.9C188.7,254,190,255.4,190,257L190,257z"/>
<path class="st3" d="M200.8,257c0,1.6-1.3,2.9-3,2.9s-2.9-1.3-2.9-3c0-1.6,1.3-2.9,3-2.9l0,0C199.5,254,200.8,255.4,200.8,257
	L200.8,257z"/>
<path class="st3" d="M211.6,257c0,1.6-1.3,2.9-3,2.9c-1.6,0-2.9-1.3-2.9-3c0-1.6,1.3-2.9,2.9-2.9S211.6,255.3,211.6,257L211.6,257z"
	/>
<circle class="st3" cx="165.4" cy="245.9" r="2.9"/>
<circle class="st3" cx="176.2" cy="245.9" r="2.9"/>
<circle class="st3" cx="187" cy="245.9" r="2.9"/>
<circle class="st3" cx="197.8" cy="245.9" r="2.9"/>
<circle class="st3" cx="208.6" cy="245.9" r="2.9"/>
<circle class="st3" cx="165.4" cy="268.1" r="2.9"/>
<circle class="st3" cx="176.2" cy="268.1" r="2.9"/>
<circle class="st3" cx="187" cy="268.1" r="2.9"/>
<circle class="st3" cx="197.8" cy="268.1" r="2.9"/>
<circle class="st3" cx="208.6" cy="268.1" r="2.9"/>
<path class="st5" d="M297.9,136.3c0,1.8-1.5,3.3-3.3,3.3s-3.3-1.5-3.3-3.3s1.5-3.3,3.3-3.3S297.9,134.5,297.9,136.3L297.9,136.3z"/>
<path class="st6" d="M313.4,136.3c0,1.8-1.5,3.3-3.3,3.3s-3.3-1.5-3.3-3.3s1.5-3.3,3.3-3.3S313.4,134.5,313.4,136.3L313.4,136.3z"/>
<path class="st7" d="M328.9,136.3c0,1.8-1.5,3.3-3.3,3.3s-3.3-1.5-3.3-3.3s1.5-3.3,3.3-3.3S328.9,134.5,328.9,136.3L328.9,136.3z"/>
<circle class="st3" cx="103.6" cy="180.6" r="15"/>
<polygon class="st3" points="119.6,196.5 99.8,230.7 139.3,230.7 "/>
<g>
	<path class="st8" d="M28.9,318.7h323.4c1.8,0,3.2-1.5,3.2-3.2l0,0c0-1.8-1.4-3.2-3.2-3.2H28.9c-1.8,0-3.2,1.4-3.2,3.2l0,0
		C25.6,317.3,27.1,318.7,28.9,318.7z"/>
	<path class="st8" d="M213,316.3h76.7c0.8,0,1.5,0.7,1.5,1.5v1.9c0,0.8-0.7,1.5-1.5,1.5H213c-0.8,0-1.5-0.7-1.5-1.5v-1.9
		C211.6,317,212.2,316.3,213,316.3z"/>
</g>
<g>
	<rect x="229.6" y="263.4" class="st4" width="88.5" height="3.9"/>
	<rect x="229.6" y="156.7" class="st4" width="71.3" height="8.9"/>
	<rect x="229.6" y="175.3" class="st4" width="88.5" height="3.9"/>
	<rect x="229.6" y="193.8" class="st4" width="88.5" height="3.9"/>
	<rect x="229.6" y="184.5" class="st4" width="88.5" height="3.9"/>
	<rect x="229.6" y="203" class="st4" width="88.5" height="3.9"/>
	<rect x="229.6" y="226.4" class="st4" width="71.3" height="8.9"/>
	<rect x="229.6" y="244.9" class="st4" width="88.5" height="3.9"/>
	<rect x="229.6" y="254.2" class="st4" width="88.5" height="3.9"/>
	<rect x="229.6" y="272.6" class="st4" width="88.5" height="3.9"/>
</g>
<g>
	<path class="st9" d="M76.2,294.8c-0.5-2.3-1.2-4.7-1.9-7.5c0.4-0.3,0.8-0.6,1.2-0.9l-2.8-11.8c-1.7,0.6-3.5,1.1-5.3,1.3
		c1.8-0.3,3.6-0.7,5.3-1.3c-0.6-6,1.2-15.4,1.2-15.4l0,0c-1.2,0.2-2.1-0.1-2.5-1.2c0.4,1,1.5,1.5,2.5,1.2c2-0.5,4-1.2,5.9-2.1
		c3.6-1.5,11.5-7.5,11.5-7.5c5.7-2.4,4.4-6.4,4-6.9c-0.8-0.8-3,3-3,3s0.6-2.1-0.1-2.3s-0.5,1.5-2.2,3.5s-12.6,4.7-15.6,4.9
		c-0.6,0-1.3,0-1.9-0.2c-0.7-0.2-1.3-0.6-1.9-1c-0.4-0.2-0.7-0.5-1-0.8v-0.1l0.5-1.4c0.4,0,0.8,0,1.2-0.1c0.3-0.1,0.6-0.5,1-2.1
		c0.2-1.2,0.3-2.5,0.2-3.8h0.2c0.1,0,0.3,0,0.4-0.1c0.6-0.4,0.1-1.6,0.1-1.6s-1.2-5.4-6.3-4.8c-2.3,0.3-2.7,2.2-3.1,4v44.6
		c0,2.3,0.8,4.5,2.2,6.2c0-0.5,0-0.9,0-1.4h0.5h0.4c0.8,1.3,1.5,2.7,2.1,4.1c1.5,0.9,3.2,1.3,5,1.3L76.2,294.8z"/>
	<path class="st10" d="M69,241.2c0.2,1.3,0.1,2.6-0.2,3.9c-0.5,1.7-0.9,2-1.2,2.1c-0.5,0.1-1,0.1-1.4,0.1l-1,2.6l-3.4-3.3l2.5-6.7
		L69,241.2z"/>
	<path class="st11" d="M72.9,312.7c0.3,1.9,0.5,3.2,0.5,3.2h8.4l-3.4-2.7C78.4,313.2,76.3,314.4,72.9,312.7L72.9,312.7z"/>
	<path class="st11" d="M56.7,313.5c0,0-2.2,1-5-0.8c-0.2,0.3-0.9,2.4-1,2.6s0.1,0.3,0.3,0.4h0.1c0.6,0.2,6.4,0.4,7.7,0.4h0.6h0.3
		c0.1,0,0.2,0,0.3,0s0-0.1,0-0.1c-0.1-0.1-0.2-0.2-0.3-0.3c-0.3-0.2-0.6-0.5-0.9-0.7l-1-0.7L56.7,313.5z"/>
	<path class="st12" d="M70.7,258.2c-1.4,0.2-2.4-0.1-2.9-1.2c-1.1-2.6-1.1-5,1.2-6.4l0,0c-0.8-0.2-1.5-0.5-2.2-1
		c-0.5-0.3-0.9-0.6-1.3-1c0.3,0.8,0.5,1.7,0.6,2.6c-0.1,0.9-1.3,0.8-1.6,1.5s0.7,1.7,0.3,2.8c-0.4,1.1-1.2,1.9-5.1,2.2
		c-2.5,0-4.9-1.4-6-3.7c-1.2,1.9-1.9,5.1-2.3,8.4c-0.5,4-0.5,7.9-0.6,9.1c3,6.7,18.5,2,18.5,2C68.6,267.6,70.7,258.2,70.7,258.2
		L70.7,258.2z"/>
	<path class="st10" d="M62.5,288.1c0,0,2.2,2.9,5.7,11.1c2.1,4.9,4.1,10.1,4.7,13.5l0,0c3.4,1.8,5.5,0.6,5.5,0.5l-1.7-1.4
		c0,0,0.1-7.8-5.7-25.8C68.3,287.2,65.4,287.9,62.5,288.1z"/>
	<path class="st10" d="M51.8,312.7L51.8,312.7c2.8,1.9,5,0.8,5,0.8l-1.2-0.8c0,0,5.9-5.3,6-24.5l0,0c-2.9,0-5.7-0.5-8.3-1.7
		C53.3,286.4,57.1,302.9,51.8,312.7z"/>
	<path class="st10" d="M71.2,250.8c-0.7,0.1-1.5,0-2.2-0.2l0,0c-2.3,1.3-2.7,3.6-1.2,6.4c0.6,1,1.5,1.4,2.9,1.2
		c2.3-0.5,4.6-1.2,6.8-2.1c4.1-1.5,13.2-7.5,13.2-7.5c6.6-2.4,5.1-6.4,4.6-6.9c-0.9-0.8-3.4,3-3.4,3s0.7-2.1-0.1-2.3
		s-0.6,1.5-2.5,3.6S74.6,250.6,71.2,250.8z"/>
	<path class="st13" d="M69.3,241.3c0.2,0,0.3,0,0.5-0.1c0.7-0.4,0.1-1.6,0.1-1.6c-0.9-3.2-4-5.3-7.3-4.8c-4.4,0.4-2.8,5.6-5,6.8
		s-3.4,2.7-2.1,5.7c-0.6,0.6-1.2,1.2-1.7,1.9c-0.7,0.8-1,1.9-0.9,3c0.2,0.7,0.5,1.4,0.8,2c1.1,2.3,3.5,3.7,6,3.7
		c3.9-0.3,4.8-1.1,5.1-2.2s-0.6-2-0.3-2.8s1.5-0.7,1.6-1.5c0.2-1.4-0.9-2.8-0.3-4.2c0.2-0.4,0.4-0.7,0.7-1c0.7-0.9,0.3-1.7,0.5-2.7
		c0.1-0.6,0.4-1.1,0.7-1.6C68.1,241.2,68.6,241.3,69.3,241.3z"/>
	<path class="st13" d="M69.3,273.6c0,0-11.7,4.2-18.5-2c-0.2,2.4,1.2,15.1,1.2,15.1c3.2,1.3,6.7,1.8,10.1,1.5
		c8.3-0.6,9-2.4,10.4-2.9L69.3,273.6z"/>
	<path class="st5" d="M59.1,237.9c0.1-2.8,2.5-5,5.3-4.8c2.6,0.1,4.7,2.2,4.8,4.8l0,0H59.1z"/>
	<polygon class="st5" points="59.1,237.9 69.2,237.9 70.4,237.9 70.4,238.8 69.2,238.8 68.4,238.8 64.6,238.8 64.2,238.8 
		59.3,238.8 59.2,238.8 58,238.8 58,237.9 	"/>
</g>
<path class="st9" d="M277.7,219.1l-3.4-2.9l0,0c0,0,4.5-8.3,4.6-12.3s-9.4-5.7-9.4-5.7c0.1-5.3,0.5-13.3,0.5-13.3
	c1.3,0.3,3,0.8,4.7,1.2c0.1-0.1,0.1-0.2,0.2-0.3c2.1,0.5,4.2,0.6,6.3,0.2c0.6-0.2,1.2-0.5,1.6-0.9l5.6,1l1.8-10.3
	c2.2-0.6,3.3-2.1,3.1-2.5s-1.5,0.1-2.7,0.4l6.7-36.9L238,126.4l-8.9,49.3l14.2,2.6c-0.5-0.1-1-0.2-1.5-0.3c0,0-0.1,6.4,9.2,5
	l-0.1-0.1l0.2,0.2c0.9,0,1.9-0.1,2.8-0.3c0,0-2.5,10.6-2.4,18.5h0.6c0,0.1,0,0.2,0,0.4c0.1,1.5,0.5,3,1.4,4.3
	c0.9,1.2,1.4,2.7,1.4,4.2c-0.3,2.3-1.7,3.7-6.9,0.8v0.1c-0.8-0.2-1.7-0.3-2.5-0.2c-0.2,1.9-0.2,3.9-0.1,5.8c0,1.1,0.7,2,1.7,2.4
	h-1.7l-11.7,75.6h56.8l-11.7-75.6L277.7,219.1L277.7,219.1z M275.4,221.5l-2.5,16.4h-21.5l-2.5-16.4H275.4z M254.2,256.5l-2.5-16.4
	h20.8l-2.5,16.4H254.2z M269.6,258.8l-2.5,16.3h-9.9l-2.5-16.3H269.6z M248.2,215.6v0.1c0,0,7.2,4.4,10.7,2.5
	c3.3-1.9,3.5-5.2,3.4-11.4l0,0c3.7,0.8,10.2,0,10.2,0c-1.3,3.1-2.2,6.4-2.6,9.7h0.3c-0.2,1.1-0.4,2-0.5,2.6h-21.6
	c0.1-0.1,0.1-0.3,0-0.4C247.6,217.7,247.6,216.6,248.2,215.6L248.2,215.6z M246.9,224.4l2.1,13.4h-4.1L246.9,224.4z M244.5,240.1
	h4.9l2.5,16.3H242L244.5,240.1z M241.6,258.8h10.6l2.5,16.3H239L241.6,258.8z M236.2,293.8l2.5-16.3h16.4l2.5,16.3H236.2z
	 M260,293.8l-2.5-16.3h9.2l-2.5,16.3H260z M288,293.8h-21.5l2.5-16.3h16.4L288,293.8z M285.1,275.1h-15.7l2.5-16.3h10.7L285.1,275.1
	z M282.2,256.5h-9.9l2.5-16.4h4.9L282.2,256.5z M275.2,237.8l2.1-13.4l2.1,13.4H275.2z"/>
<rect x="228.6" y="126.2" transform="matrix(0.1767 -0.9843 0.9843 0.1767 55.0468 378.3726)" class="st14" width="50.1" height="60.2"/>
<path class="st3" d="M238.3,136.6c-0.3,1.6-1.8,2.7-3.4,2.4c-1.6-0.3-2.7-1.8-2.4-3.4c0.3-1.6,1.8-2.7,3.4-2.4l0,0
	C237.5,133.5,238.6,135,238.3,136.6z"/>
<path class="st3" d="M249,138.5c-0.3,1.6-1.8,2.7-3.4,2.4c-1.6-0.3-2.7-1.8-2.4-3.4c0.3-1.6,1.8-2.7,3.4-2.4l0,0
	C248.2,135.4,249.3,136.9,249,138.5z"/>
<path class="st3" d="M259.6,140.4c-0.3,1.6-1.8,2.7-3.4,2.4s-2.7-1.8-2.4-3.4c0.3-1.6,1.8-2.7,3.4-2.4
	C258.8,137.3,259.9,138.8,259.6,140.4L259.6,140.4z"/>
<path class="st3" d="M270.2,142.3c-0.3,1.6-1.8,2.7-3.4,2.4s-2.7-1.8-2.4-3.4c0.3-1.6,1.8-2.7,3.4-2.4l0,0
	C269.5,139.2,270.5,140.7,270.2,142.3z"/>
<path class="st3" d="M280.9,144.2c-0.3,1.6-1.8,2.7-3.4,2.4s-2.7-1.8-2.4-3.4c0.3-1.6,1.8-2.7,3.4-2.4l0,0
	C280.1,141.1,281.2,142.6,280.9,144.2z"/>
<path class="st3" d="M234.4,158.5c-0.3,1.6-1.8,2.7-3.4,2.4c-1.6-0.3-2.7-1.8-2.4-3.4c0.3-1.6,1.8-2.6,3.4-2.4
	C233.6,155.4,234.7,156.9,234.4,158.5L234.4,158.5z"/>
<path class="st3" d="M245,160.4c-0.3,1.6-1.8,2.7-3.4,2.4c-1.6-0.3-2.7-1.8-2.4-3.4c0.3-1.6,1.8-2.7,3.4-2.4l0,0
	C244.2,157.3,245.3,158.8,245,160.4z"/>
<path class="st3" d="M255.7,162.3c-0.3,1.6-1.8,2.7-3.4,2.4c-1.6-0.3-2.7-1.8-2.4-3.4c0.3-1.6,1.8-2.7,3.4-2.4l0,0
	C254.9,159.2,256,160.7,255.7,162.3z"/>
<path class="st3" d="M266.3,164.2c-0.3,1.6-1.8,2.7-3.4,2.4s-2.7-1.8-2.4-3.4c0.3-1.6,1.8-2.7,3.4-2.4S266.6,162.6,266.3,164.2
	L266.3,164.2z"/>
<path class="st3" d="M277,166.2c-0.3,1.6-1.8,2.7-3.4,2.4s-2.7-1.8-2.4-3.4c0.3-1.6,1.8-2.7,3.4-2.4l0,0
	C276.2,163,277.3,164.6,277,166.2z"/>
<path class="st3" d="M236.4,147.6c-0.3,1.6-1.8,2.7-3.4,2.4c-1.6-0.3-2.7-1.8-2.4-3.4c0.3-1.6,1.8-2.7,3.4-2.4
	C235.6,144.4,236.7,146,236.4,147.6z"/>
<path class="st3" d="M247,149.5c-0.3,1.6-1.8,2.7-3.4,2.4c-1.6-0.3-2.7-1.8-2.4-3.4c0.3-1.6,1.8-2.7,3.4-2.4l0,0
	C246.2,146.3,247.3,147.9,247,149.5z"/>
<path class="st3" d="M257.6,151.4c-0.3,1.6-1.8,2.7-3.4,2.4s-2.7-1.8-2.4-3.4c0.3-1.6,1.8-2.7,3.4-2.4
	C256.9,148.2,257.9,149.8,257.6,151.4L257.6,151.4z"/>
<path class="st3" d="M268.3,153.3c-0.3,1.6-1.8,2.7-3.4,2.4s-2.7-1.8-2.4-3.4c0.3-1.6,1.8-2.7,3.4-2.4
	C267.5,150.2,268.6,151.7,268.3,153.3z"/>
<path class="st3" d="M278.9,155.2c-0.3,1.6-1.8,2.7-3.4,2.4s-2.7-1.8-2.4-3.4c0.3-1.6,1.8-2.7,3.4-2.4l0,0
	C278.1,152.1,279.2,153.6,278.9,155.2z"/>
<path class="st3" d="M232.4,169.5c-0.3,1.6-1.8,2.7-3.4,2.4s-2.7-1.8-2.4-3.4c0.3-1.6,1.8-2.7,3.4-2.4
	C231.7,166.3,232.7,167.9,232.4,169.5L232.4,169.5z"/>
<path class="st3" d="M243.1,171.4c-0.3,1.6-1.8,2.7-3.4,2.4c-1.6-0.3-2.7-1.8-2.4-3.4c0.3-1.6,1.8-2.7,3.4-2.4
	S243.4,169.8,243.1,171.4z"/>
<path class="st3" d="M253.7,173.3c-0.3,1.6-1.8,2.7-3.4,2.4c-1.6-0.3-2.7-1.8-2.4-3.4c0.3-1.6,1.8-2.7,3.4-2.4l0,0
	C252.9,170.2,254,171.7,253.7,173.3z"/>
<path class="st3" d="M264.3,175.2c-0.3,1.6-1.8,2.7-3.4,2.4s-2.7-1.8-2.4-3.4c0.3-1.6,1.8-2.7,3.4-2.4
	C263.6,172.1,264.6,173.6,264.3,175.2L264.3,175.2z"/>
<path class="st3" d="M275,177.1c-0.3,1.6-1.8,2.7-3.4,2.4s-2.7-1.8-2.4-3.4c0.3-1.6,1.8-2.7,3.4-2.4
	C274.2,174,275.3,175.5,275,177.1z"/>
<path class="st15" d="M268.8,219.6H260c0,0,0.3-1.5,0.6-3.2l0,0c0.2-0.4,4-0.2,4-0.2L268.8,219.6z"/>
<path class="st13" d="M250.3,200.9c-2.5,0.3-5.1,0.3-7.6,0c0,0.2,0,0.5,0,0.7c0.1,1.5,0.5,3,1.4,4.3c0.9,1.2,1.4,2.7,1.4,4.2
	c-0.3,2.3-1.7,3.7-6.9,0.8l0.1,4.7c0,0,7.2,4.4,10.7,2.5s3.5-5.4,3.4-12L250.3,200.9z"/>
<path class="st10" d="M240.9,177.8c-0.9,1.7-0.6,3.7,0.7,5.1c-9.3,1.5-9.2-5-9.2-5c2.7,0.6,5.5,0.5,8.1-0.1H240.9z"/>
<path class="st10" d="M283.9,173.6c0.2,0.5-1.5,2.5-4.6,2.8c0,0-4.2,9.2-7.5,9.9c-2.2,0.3-4.4,0.2-6.5-0.3c1.4-1.4,2.1-3.3,1.9-5.3
	c1,0.4,2.1,0.6,3.2,0.4c2.2-0.5,5.4-5.2,6.3-6.1s3.4-3.4,4-3.1s-1.6,2-1.3,2.3S283.7,173.1,283.9,173.6z"/>
<path class="st10" d="M266,169.2c-0.4,1.8-1.5,6.3-3.8,6.4c-0.9,0-1.8-0.1-2.7-0.4c-0.3,0.4-0.6,0.8-0.9,1.3c-1.7-0.8-4-1.8-4.8-2
	c-0.1,0-0.2,0-0.3-0.1c0.7-1,1.3-2,1.9-3c0.8,0.9,1.8,1.5,3,1.7c1.3,0.1,2.3-0.8,2.3-1.1c0-0.7,0.5-2,1.6-2s0.5,2,0.5,2.1
	s0.8,0,0.8,0C264.2,170.2,265,169.6,266,169.2z"/>
<path class="st13" d="M248.8,201.1c0,0-0.1,4.9,4,5.8c3.7,0.8,10.2,0,10.2,0c-1.3,3.1-2.2,6.4-2.6,9.7c1.5,0.1,3,0,4.5-0.3
	c0,0,4.5-8.3,4.7-12.3s-9.5-5.7-9.5-5.7L248.8,201.1z"/>
<path class="st16" d="M257.9,176.2c1.7,0.8,3.5,1.7,4.5,2.2c1.6,0.8,3.2,1.5,4.9,2.1c0.2,2.1-0.5,4.2-1.9,5.8
	c-1.7-0.4-3.4-0.9-4.7-1.2c0,0-0.4,8-0.5,13.3c-7.9,3.8-18,2.9-18,2.9c-0.1-7.8,2.4-18.5,2.4-18.5c-0.9,0.1-1.9,0.2-2.8,0.3
	c-1.5-1.3-1.9-3.6-0.8-5.3c4.6-2,5.8-3.4,7.9-3.7c1.6-0.1,3.2,0,4.8,0.3c0.1,0,0.2,0,0.3,0.1C255.2,175,256.6,175.6,257.9,176.2z"/>
<path class="st15" d="M238.6,211.2c-0.9-0.2-1.8-0.3-2.6-0.2c-0.2,1.9-0.2,3.9-0.1,5.8c0,1.3,1,2.4,2.3,2.5c0.2,0,0.4-0.1,0.5-0.3
	c0-0.1,0-0.2,0-0.3c-0.5-1-0.5-2.1,0.1-3.1L238.6,211.2z"/>
<path class="st12" d="M265.3,165.7c0.3,0.1,0.6,0.4,0.8,0.7c0.5,0.7,0.6,1.6,0.3,2.4c-0.3,0.7-1.2,0.7-1.8,1.2
	c-0.5,0.6-0.9,1.3-1.1,2c0,0-0.8,0.1-0.8,0s0.6-2.1-0.5-2.1s-1.3,1.4-1.3,2.1c0,0.4-1.4,1.1-2.7,1c-1.2-0.1-2.3-0.5-3.3-1.2
	c0.1-0.3,0.5-1,0.6-1.3c0.8-2,1.4-5.7,4-6.1c0.6-0.1,1.1,0,1.7,0.1c1,0.2,1.9,0.4,2.8,0.8C264.6,165.5,265,165.6,265.3,165.7z"/>
<path class="st5" d="M256.7,166.6c0.7-2.7,3.4-4.4,6.1-3.7s4.4,3.4,3.7,6.1c0,0.1-0.1,0.2-0.1,0.3l0,0L256.7,166.6z"/>
<polygon class="st5" points="256.7,166.6 266.4,169.3 267.5,169.6 267.3,170.4 266.1,170.1 265.4,169.9 261.7,168.9 261.3,168.8 
	256.6,167.5 256.5,167.5 255.4,167.2 255.6,166.3 "/>
<path class="st17" d="M267.3,221.5h-1.4l-2.5,16.4h2.4l2.1-13.4L267.3,221.5z M223.8,312.5l2.5-16.3h22.2l-0.4-2.3h-21.5l2.5-16.3
	h16.4l-0.4-2.3h-15.7l2.5-16.3h10.7l-0.4-2.3h-9.9l2.5-16.4h4.9l-0.4-2.3h-4.1l2.1-13.4l-0.8-5.3h-0.7l-15.4,99.6h2.4l0.6-4h28
	l-0.6,4h1.2l-1-6.3L223.8,312.5z M260.5,256.5h2.3l2.5-16.4H263L260.5,256.5z M254.7,293.8h2.3l2.5-16.3h-2.3L254.7,293.8z
	 M257.6,275.1h2.3l2.5-16.3h-2.3L257.6,275.1z M252.6,307.1l0.8,5.3h0.7l2.5-16.3h-2.4L252.6,307.1z"/>
<path class="st18" d="M269.3,219.1h-32.7l0.8,5.3l2.1,13.4l0.4,2.3l2.5,16.4l0.4,2.3l2.5,16.3l0.4,2.3l2.5,16.3l0.4,2.3l2.5,16.3
	l1,6.3h2.3l-0.6-4h28l0.6,4h2.4L269.3,219.1z M239.3,221.5h28l0.5,3l2.1,13.4h-28L239.3,221.5z M242.2,240.1h28l2.5,16.4h-28
	L242.2,240.1z M245.1,258.8h28l2.5,16.3h-28L245.1,258.8z M248,277.5h28l2.5,16.3h-28L248,277.5z M253.4,312.5l-0.8-5.3l-1.7-11h28
	l2.5,16.3H253.4z"/>
<path class="st8" d="M350.9,325.8h30c0.4,0,0.8,0.4,0.8,0.8v2.1c0,0.4-0.4,0.8-0.8,0.8h-30c-0.4,0-0.8-0.4-0.8-0.8v-2.1
	C350.1,326.1,350.4,325.8,350.9,325.8z"/>
<path class="st19" d="M376.2,324.8h-20.9l1.9-6.3l1.8-5.8l1.6-5.3l1.8-5.8l0.3-0.9c0.5-1.7,2.2-2.6,3.9-2.1c1,0.3,1.8,1.1,2.1,2.1
	l0.3,0.9l1.8,5.8l1.6,5.3l1.8,5.8L376.2,324.8z"/>
<path class="st19" d="M376.8,327.6h-22c-0.9,0-1.5-0.7-1.5-1.5c0-0.4,0.2-0.8,0.4-1.1l0,0c0.3-0.3,0.7-0.5,1.1-0.5h22
	c0.4,0,0.8,0.2,1.1,0.5l0,0c0.6,0.6,0.6,1.6,0,2.2C377.5,327.5,377.1,327.6,376.8,327.6z"/>
<polygon class="st3" points="370.8,307.5 360.7,307.5 362.5,301.7 369,301.7 "/>
<polygon class="st3" points="374.3,318.5 357.3,318.5 359.1,312.8 372.5,312.8 "/>
<path class="st8" d="M0.5,325.8h30c0.4,0,0.8,0.4,0.8,0.8v2.1c0,0.4-0.4,0.8-0.8,0.8h-30c-0.4,0-0.8-0.4-0.8-0.8v-2.1
	C-0.3,326.1,0,325.8,0.5,325.8z"/>
<path class="st19" d="M25.8,324.8H4.9l1.9-6.3l1.8-5.8l1.6-5.3l1.8-5.8l0.3-0.9c0.5-1.7,2.2-2.6,3.9-2.1c1,0.3,1.8,1.1,2.1,2.1
	l0.3,0.9l1.8,5.8l1.6,5.3l1.8,5.8L25.8,324.8z"/>
<path class="st19" d="M26.3,327.6h-22c-0.9,0-1.5-0.7-1.5-1.6c0-0.4,0.2-0.8,0.4-1.1l0,0c0.3-0.3,0.7-0.5,1.1-0.5h22
	c0.4,0,0.8,0.2,1.1,0.5l0,0c0.6,0.6,0.6,1.6,0,2.2C27.1,327.5,26.7,327.6,26.3,327.6z"/>
<polygon class="st3" points="20.4,307.5 10.3,307.5 12.1,301.7 18.6,301.7 "/>
<polygon class="st3" points="23.8,318.5 6.8,318.5 8.6,312.8 22,312.8 "/>
<path class="st8" d="M192.4,342.1H93.2c-1.3,0-2.4-1.1-2.4-2.4l0,0c0-1.3,1.1-2.4,2.4-2.4h99.2c1.3,0,2.4,1.1,2.4,2.4l0,0
	C194.8,341,193.7,342.1,192.4,342.1z"/>
<path class="st8" d="M205.5,357.4h39.1c0.6,0,1.1,0.5,1.1,1.1v2.7c0,0.6-0.5,1.1-1.1,1.1h-39.1c-0.6,0-1.1-0.5-1.1-1.1v-2.7
	C204.4,357.9,204.9,357.4,205.5,357.4z"/>
<rect x="109.3" y="277.6" class="st17" width="3.7" height="61.1"/>
<rect x="170.7" y="277.6" class="st17" width="3.7" height="61.1"/>
<path class="st19" d="M100.2,282.1h82.9c1,0,1.9,0.8,1.9,1.9v13.8c0,1-0.8,1.9-1.9,1.9h-82.9c-1,0-1.9-0.8-1.9-1.9V284
	C98.3,283,99.2,282.1,100.2,282.1z"/>
<path class="st20" d="M117.3,282.1l-12.8,17.6h-4.3c-1,0-1.9-0.8-1.9-1.9l0,0v-1.2l10.6-14.5H117.3z"/>
<polygon class="st20" points="134.6,282.1 121.8,299.7 113.3,299.7 126.1,282.1 "/>
<polygon class="st20" points="151.8,282.1 139,299.7 130.6,299.7 143.4,282.1 "/>
<polygon class="st20" points="169.1,282.1 156.3,299.7 147.9,299.7 160.6,282.1 "/>
<path class="st20" d="M185,284L185,284l-11.4,15.7h-8.4l12.8-17.6h5.2C184.2,282.1,185,283,185,284z"/>
<path class="st19" d="M100.2,302.8h82.9c1,0,1.9,0.8,1.9,1.9v13.8c0,1-0.8,1.9-1.9,1.9h-82.9c-1,0-1.9-0.8-1.9-1.9v-13.8
	C98.3,303.6,99.2,302.8,100.2,302.8z"/>
<path class="st20" d="M117.3,302.8l-12.8,17.6h-4.3c-1,0-1.9-0.8-1.9-1.9l0,0v-1.2l10.6-14.5H117.3z"/>
<polygon class="st20" points="134.6,302.8 121.8,320.3 113.3,320.3 126.1,302.8 "/>
<polygon class="st20" points="151.8,302.8 139,320.3 130.6,320.3 143.4,302.8 "/>
<polygon class="st20" points="169.1,302.8 156.3,320.3 147.9,320.3 160.6,302.8 "/>
<path class="st20" d="M185,304.6L185,304.6l-11.4,15.7h-8.4l12.8-17.6h5.2C184.1,302.8,185,303.6,185,304.6z"/>
<path class="st19" d="M238.5,356.1h-27.2l2.5-8.2l2.3-7.5l2.1-6.9l2.3-7.5l0.4-1.2c0.7-2.1,2.9-3.4,5.1-2.7c1.3,0.4,2.3,1.4,2.7,2.7
	l0.4,1.2l2.3,7.5l2.1,6.9l2.4,7.6L238.5,356.1z"/>
<path class="st19" d="M239.2,359.8h-28.7c-1.1,0-2-0.9-2-2c0-0.5,0.2-1,0.6-1.4l0,0c0.4-0.4,0.9-0.6,1.4-0.6h28.7
	c0.5,0,1.1,0.2,1.4,0.6l0,0c0.8,0.8,0.8,2.1,0,2.8C240.2,359.6,239.7,359.8,239.2,359.8z"/>
<polygon class="st3" points="231.5,333.5 218.3,333.5 220.6,326 229.1,326 "/>
<polygon class="st3" points="236,348 213.8,348 216.1,340.4 233.6,340.4 "/>
<g>
	<path class="st9" d="M336.4,284.6v-12.8c-2-6.3-5.1-14.1-5.1-14.1c2.4-3.8,4.2-8,5.1-12.4v-11.5c-0.5-0.4-1.1,1.2-1.1,1.2
		s-0.5-2-0.9-1.9c-0.8,0.3-0.1,4.5-0.1,4.7c-1.7,6.1-5.5,11.3-10.8,14.8c-0.1-0.1-1.1-1.7-1.1-1.8c0-1.6,0.2-7-2.2-8.5
		c-2.6-1.6-7.7-0.4-9.5-0.2s0.9,2.5,2.7,3.2c-0.2,1.4-0.2,2.9,0,4.3c0.2,0.8,0.7,2.5,1.5,3c0.9,0.4,2,0.4,2.9,0.1
		c0,0,0.6,0.1,1.6,2.2c-8.1,4.1-23.9,7.6-24.1,7.7c0,0-2.7-1.6-3.3-1.2s0.2,0.9,1,1.4c0,0-4.1,0.8-4.2,1.9s0.4,2,2.4,1.9
		c1.9,0,3.7-0.6,5.2-1.7l19.4,1.3l3.8,18.1c0,0-1.8,3.6-2.3,10.5h8.6c0.8-2.5,1.8-4.9,3.1-7.2c0,0-0.2,3.1,0,6.7
		C333.4,293,336.4,289.1,336.4,284.6z"/>
	<path class="st12" d="M337.5,235.1c0.2,1.3,0.3,9.5-5.6,18.9c0,0,6.9,17.4,6.8,21.3l-0.6,0.4c-2.1,1.5-9.7,6.3-17.8,5l-3.8-18.1
		l-20,1.9l-1.1-2.3c0.2-0.1,16.6-6.8,24.6-10.9c1.2-0.6,2.4-1.3,3.5-2l0.5-0.4c5.3-3.4,9.1-8.7,10.8-14.8
		C334.8,234,337.2,233.7,337.5,235.1z"/>
	<path class="st10" d="M292.1,260.9c0.6-0.4,3.3,1.2,3.3,1.2l1.1,2.3c-1.5,1.1-3.3,1.6-5.2,1.7c-2,0.1-2.6-0.8-2.4-1.9
		s4.2-1.9,4.2-1.9C292.3,261.8,291.5,261.3,292.1,260.9z"/>
	<path class="st10" d="M334.9,229.3c0.4-0.1,0.9,1.9,0.9,1.9s0.6-1.8,1.1-1.2s2.1,3.4,0.5,5c-0.2-1.3-2.6-1-2.6-1
		C334.8,233.8,334.1,229.6,334.9,229.3z"/>
	<path class="st10" d="M318.9,243.7c1.1,0.4,0.9,1.9,1.2,2.4s0.1,1.5,2.8,1c0,0.1,1,1.6,1.1,1.8l-0.5,0.4c-1.1,0.7-2.3,1.4-3.5,2
		c-0.9-2-1.6-2.1-1.6-2.1s-1.8,0.6-2.9-0.1c-0.8-0.8-1.4-1.9-1.5-3c-0.2-1.4-0.2-2.9,0-4.3c0.1,0,0.2,0.1,0.4,0.1
		c1.9,0.5,2.5,2.9,2.5,3.8h0.5C317.4,245.6,316.5,242.4,318.9,243.7z"/>
	<path class="st15" d="M322.3,312.2v4c-0.6,0.1-9.4,0-9.4,0l5.4-4.1L322.3,312.2z"/>
	<path class="st15" d="M341.7,311.5c0,0-4.3,5-8,4.8c-0.1,0.1,3.1-5.1,3.2-5.9l3.2-2L341.7,311.5z"/>
	<path class="st13" d="M320.3,280.6c8,1.3,15.6-3.5,17.8-5c1.8,4.6,0.3,10.8-0.5,15.5c-1.2,7.5,2.8,17.7,2.8,17.7l-3.4,1.6
		c0-0.1,0-0.2,0-0.2s-4.8-7.3-6.3-12.4s-1-13.8-1-13.8c-5.3,8.6-7.3,28.3-7.3,28.3l-4-0.1c0,0-0.6-9.9-0.5-18.4
		S320.3,280.6,320.3,280.6z"/>
	<path class="st13" d="M319.4,246.1c-0.3-0.5,0.2-2.3-0.7-2.5c-1.5-0.7-1.3,1.9-1.3,1.9h-0.5c-0.1-0.5-0.2-1-0.3-1.5
		c-0.2-0.7-0.6-1.3-1.1-1.7c-0.5-0.5-1.4-0.5-1.7-1.3c-0.1-0.8,0.2-1.6,0.8-2.1c0.6-0.6,1.5-1,2.3-1c1.3-0.3,2.7,0,3.9,0.7
		c2.5,1.5,2.2,6.8,2.2,8.5C320.2,247.6,319.6,246.6,319.4,246.1z"/>
	<path class="st5" d="M313.2,242c0-2.8,2.3-5,5.1-5c2.7,0,4.8,2.1,5,4.7l0,0L313.2,242z"/>
	<polygon class="st5" points="313.2,242 323.3,241.7 324.4,241.7 324.5,242.5 323.3,242.6 322.5,242.6 318.7,242.7 318.3,242.7 
		313.4,242.8 313.3,242.8 312.1,242.9 312.1,242 	"/>
</g>
</svg>
