<?xml version="1.0" encoding="UTF-8"?><svg id="_層_2" xmlns="http://www.w3.org/2000/svg" viewBox="0 0 24 24"><defs><style>.cls-1{fill:#fff;}</style></defs><path class="cls-1" d="M14.34,3.78c.54,.72,.75,1.39,.63,2.02l-1.19,7.61c-.15,1.01-.74,1.51-1.78,1.51-1.07-.02-1.67-.52-1.78-1.51l-1.19-7.61c-.1-.65,.13-1.32,.68-2.02,.54-.67,1.3-1,2.29-1,1.06,.02,1.84,.35,2.34,1Zm-.68,13.65c.49,.47,.73,1.05,.73,1.73s-.23,1.24-.68,1.68c-.46,.47-1.02,.71-1.71,.71s-1.28-.22-1.68-.66c-.46-.47-.68-1.05-.68-1.73s.23-1.28,.68-1.73c.42-.42,.98-.63,1.68-.63,.7,.02,1.25,.23,1.66,.63Z"/></svg>