<?xml version="1.0" encoding="UTF-8"?><svg id="_層_1" xmlns="http://www.w3.org/2000/svg" viewBox="0 0 56 56"><defs><style>.cls-1{fill:aqua;}</style></defs><path class="cls-1" d="M48.46,47.1c.26-.28,.51-.56,.76-.85,.08-.09,.16-.18,.24-.27,4.08-4.86,6.54-11.13,6.54-17.98C56,12.54,43.46,0,28,0S0,12.54,0,28c0,6.85,2.46,13.12,6.54,17.98,.08,.09,.16,.18,.24,.27,.25,.29,.5,.57,.76,.85,.1,.11,.2,.21,.3,.32,.25,.26,.51,.52,.77,.77,.1,.1,.21,.2,.32,.3,.28,.26,.57,.52,.86,.77,.09,.08,.17,.15,.26,.23,.77,.65,1.58,1.25,2.42,1.81,.09,.06,.19,.12,.28,.18,.32,.21,.65,.42,.98,.61,.14,.08,.28,.16,.41,.24,.3,.17,.6,.34,.91,.5,.15,.08,.3,.16,.46,.23,.31,.15,.62,.3,.93,.44,.15,.07,.3,.14,.45,.2,.36,.16,.73,.3,1.1,.45,.1,.04,.2,.08,.3,.12,.48,.18,.96,.34,1.45,.49,.1,.03,.2,.05,.3,.08,.39,.11,.78,.22,1.17,.32,.17,.04,.34,.08,.51,.12,.33,.08,.66,.15,1,.21,.19,.04,.38,.07,.57,.1,.33,.06,.65,.1,.98,.15,.19,.03,.38,.05,.58,.07,.35,.04,.71,.07,1.07,.1,.17,.01,.33,.03,.5,.04,.53,.03,1.05,.05,1.59,.05s1.06-.02,1.59-.05c.17,0,.33-.03,.5-.04,.36-.03,.71-.06,1.07-.1,.19-.02,.38-.05,.58-.07,.33-.04,.66-.09,.98-.15,.19-.03,.38-.07,.57-.1,.33-.06,.67-.14,1-.21,.17-.04,.34-.08,.51-.12,.39-.1,.78-.21,1.17-.32,.1-.03,.2-.05,.3-.08,.49-.15,.97-.31,1.45-.49,.1-.04,.2-.08,.3-.12,.37-.14,.74-.29,1.1-.45,.15-.06,.3-.13,.45-.2,.31-.14,.63-.29,.93-.44,.15-.08,.3-.15,.46-.23,.31-.16,.61-.33,.91-.5,.14-.08,.28-.16,.41-.24,.33-.2,.66-.4,.98-.61,.09-.06,.19-.12,.28-.18,.84-.56,1.65-1.17,2.42-1.81,.09-.07,.18-.15,.26-.23,.29-.25,.58-.5,.86-.77,.11-.1,.21-.2,.32-.3,.26-.25,.52-.51,.77-.77,.1-.1,.2-.21,.3-.32ZM28,3c13.81,0,25,11.19,25,25,0,5.3-1.65,10.21-4.46,14.25-4.86-5.96-12.25-9.77-20.54-9.77s-15.68,3.81-20.54,9.77c-2.81-4.04-4.46-8.95-4.46-14.25C3,14.19,14.19,3,28,3Z"/><circle class="cls-1" cx="28" cy="18.59" r="11"/></svg>