<?xml version="1.0" encoding="UTF-8"?><svg id="_層_2" xmlns="http://www.w3.org/2000/svg" viewBox="0 0 64 64"><defs><style>.cls-1{fill:#fff;}</style></defs><path class="cls-1" d="M56,40v12H8v-12c0-2.21-1.79-4-4-4h0c-2.21,0-4,1.79-4,4v15.18c0,2.66,2.16,4.82,4.82,4.82H59.18c2.66,0,4.82-2.16,4.82-4.82v-15.18c0-2.21-1.79-4-4-4h0c-2.21,0-4,1.79-4,4Z"/><path class="cls-1" d="M41.9,26.17l-5.9,5.9V10c0-2.21-1.79-4-4-4h0c-2.21,0-4,1.79-4,4v22.07l-5.9-5.9c-1.56-1.56-4.09-1.56-5.66,0h0c-1.56,1.56-1.56,4.09,0,5.66l15.56,15.56,15.56-15.56c1.56-1.56,1.56-4.09,0-5.66h0c-1.56-1.56-4.09-1.56-5.66,0Z"/></svg>