<?xml version="1.0" encoding="UTF-8"?><svg id="_層_2" xmlns="http://www.w3.org/2000/svg" viewBox="0 0 24 24"><defs><style>.cls-1{fill:#fff;}</style></defs><path class="cls-1" d="M12.96,8.56c.57,0,1.03,.46,1.03,1.03v8.53c0,.94,.11,1.54,.33,1.8,.22,.26,.65,.41,1.28,.45v.51h-7.2v-.51c.59-.02,1.03-.19,1.31-.51,.19-.22,.28-.8,.28-1.74v-6.79c0-.94-.11-1.54-.33-1.8-.22-.26-.64-.41-1.27-.45v-.53h4.56Zm-.96-5.77c.62,0,1.14,.22,1.57,.65,.43,.43,.64,.95,.64,1.56s-.22,1.13-.65,1.55-.95,.64-1.56,.64-1.13-.21-1.55-.64c-.43-.43-.64-.95-.64-1.55s.21-1.13,.64-1.56c.43-.43,.95-.65,1.55-.65Z"/></svg>