<?xml version="1.0" encoding="UTF-8"?><svg id="_層_1" xmlns="http://www.w3.org/2000/svg" viewBox="0 0 160 144"><defs><style>.cls-1{fill:#fff;}</style></defs><path class="cls-1" d="M155.61,117.3c-.38,1.64-.69,3.3-1.15,4.92-3.69,12.93-15.37,21.77-28.81,21.77-31.15,0-62.29,0-93.44,0-15.32,0-27.82-10.89-29.93-26.06-.16-1.18-.26-2.39-.26-3.58-.01-24.25-.03-48.5,0-72.74,.01-14.69,11.33-27.56,25.9-29.27,3.24-.38,6.57-.06,10.09-.06,0-2.21,0-4.09,0-5.97C38.02,2.63,40.48,.01,43.95,0c3.56-.01,6.04,2.59,6.05,6.36,0,7.9,.01,15.8,0,23.7,0,3.07-2.35,5.66-5.28,5.92-3.22,.29-6.16-1.73-6.6-4.8-.27-1.86-.09-3.79-.11-5.69,0-.44,0-.88,0-1.31-8.81-.88-16.39,.44-21.52,8.81-1.68,2.74-2.47,5.79-2.47,8.99-.02,24-.05,48,0,71.99,.02,9.94,7.97,17.98,17.91,18,31.25,.07,62.49,.06,93.74,0,9.95-.02,17.9-8.03,17.92-17.98,.06-24,.06-48,0-71.99-.03-10.02-8.03-17.9-18.06-18.01-1.9-.02-3.79,0-5.92,0,0,2.03,.01,4,0,5.98-.02,3.05-2.17,5.58-5.04,5.99-3.12,.44-5.91-1.37-6.75-4.41-.16-.57-.19-1.18-.19-1.77-.01-7.85-.01-15.7,0-23.55C107.62,2.58,110.13,0,113.64,0c3.48,0,5.95,2.62,5.96,6.3,0,1.84,0,3.68,0,5.7,2.04,0,3.97,0,5.9,0,13.23,.01,24.69,8.33,28.7,20.91,.6,1.89,.94,3.85,1.4,5.78V117.3Z"/><path class="cls-1" d="M78.73,59.99c-15.55,0-31.1,0-46.65,0-3.07,0-5.6-2.11-6.04-4.98-.47-3.1,1.32-5.93,4.34-6.79,.56-.16,1.18-.21,1.77-.21,31.1,0,62.19-.01,93.29,0,3.54,0,6.14,2.54,6.16,5.95,.01,3.5-2.59,6.03-6.23,6.04-15.55,0-31.1,0-46.65,0Z"/><path class="cls-1" d="M73,105.6c.42-.55,.71-1.03,1.1-1.41,10.03-10.05,20.06-20.09,30.11-30.11,2.95-2.95,7.26-2.74,9.5,.42,1.76,2.48,1.48,5.61-.79,7.91-3.26,3.31-6.57,6.58-9.85,9.87-8.41,8.41-16.82,16.83-25.23,25.24-3.4,3.4-6.62,3.42-9.99,.05-5.73-5.72-11.48-11.42-17.16-17.19-3.4-3.44-2.03-8.86,2.52-10.15,2.37-.68,4.41,.03,6.14,1.76,4.2,4.21,8.41,8.41,12.62,12.62,.24,.24,.5,.47,1.06,1Z"/><path class="cls-1" d="M78.87,12c3.9,0,7.8,0,11.7,0,3.64,0,6.24,2.53,6.23,6.03,0,3.41-2.61,5.95-6.15,5.96-7.9,.01-15.8,.01-23.69,0-3.54,0-6.14-2.54-6.15-5.95-.01-3.5,2.58-6.02,6.22-6.03,3.95,0,7.9,0,11.85,0Z"/></svg>