<?xml version="1.0" encoding="UTF-8"?><svg id="_層_1" xmlns="http://www.w3.org/2000/svg" viewBox="0 0 160 144"><defs><style>.cls-1{fill:#fff;}</style></defs><path class="cls-1" d="M151.99,63.28c-.17,.32-.35,.64-.51,.96-1.16,2.41-3.73,3.72-6.27,3.18-2.62-.55-4.45-2.82-4.46-5.56-.01-9.33,.14-18.66-.05-27.98-.2-9.7-4.86-16.69-13.68-20.8-2.75-1.28-5.71-1.82-8.73-1.82-25.54-.02-51.09-.06-76.63,.01-12.44,.04-22.37,10.05-22.4,22.51-.06,25.5-.06,50.99,0,76.49,.03,12.45,9.99,22.35,22.46,22.46,8.06,.07,16.12,0,24.18,.02,2.86,0,5.24,2.03,5.62,4.72,.41,2.92-1.28,5.54-4.13,6.33-.53,.15-1.11,.18-1.66,.18-8.3,0-16.59,.04-24.89,0-15.48-.08-29.76-12.26-32.26-27.53-.35-2.16-.56-4.37-.56-6.56-.04-25.36-.03-50.71-.02-76.07,0-14.81,9.33-27.66,23.47-32.22C33.63,.91,35.88,.53,38.09,0c27.94,0,55.87,0,83.81,0,.2,.09,.4,.23,.61,.27,14.43,2.32,23.77,10.55,28.24,24.38,.6,1.85,.83,3.81,1.24,5.73V63.28Z"/><path class="cls-1" d="M151.99,98.15c-.22,.85-.43,1.7-.66,2.54-.98,3.5-2.71,6.56-5.28,9.13-6.69,6.7-13.36,13.42-20.09,20.07-6.26,6.18-13.86,9.72-22.47,11.26-4.51,.81-8.99,1.74-13.48,2.66-4.57,.94-7.98-2.47-7.01-7.05,1.35-6.4,2.48-12.85,4.08-19.18,1.59-6.28,4.92-11.73,9.46-16.35,6.79-6.93,13.61-13.83,20.58-20.58,5.84-5.66,12.92-7.33,20.62-4.85,7.76,2.5,12.41,8.05,13.98,16.1,.04,.21,.18,.41,.27,.62v5.62Zm-56.19,32.96c1.64-.32,3.14-.64,4.66-.89,5.9-1,11.55-2.79,15.95-6.99,7.51-7.18,14.85-14.55,22.11-21.99,2.3-2.35,2.76-5.45,1.76-8.65-2.1-6.68-10.34-8.7-15.4-3.71-6.4,6.31-12.63,12.8-19.11,19.03-6.58,6.32-8.83,14.4-9.96,23.21Z"/><path class="cls-1" d="M56.68,22.5c9.32,0,16.84,7.53,16.84,16.86,0,9.39-7.54,16.89-16.97,16.88-9.28-.01-16.77-7.58-16.77-16.94,0-9.3,7.55-16.81,16.9-16.8Zm.09,11.25c-3-.09-5.67,2.49-5.74,5.54-.06,3.01,2.53,5.67,5.57,5.71,2.96,.04,5.55-2.47,5.67-5.47,.11-2.99-2.45-5.69-5.5-5.77Z"/><path class="cls-1" d="M61.72,99.55c-6.7,0-13.4,0-20.1,0-3.57,0-6.04-2.28-6.05-5.58-.01-3.34,2.43-5.66,5.97-5.66,13.45,0,26.9,0,40.35,0,3.54,0,5.99,2.32,5.98,5.65,0,3.3-2.48,5.59-6.04,5.59-6.7,0-13.4,0-20.1,0Z"/><path class="cls-1" d="M106.5,29.25c5.67,0,11.34,0,17.01,0,3.54,0,5.99,2.32,5.98,5.65,0,3.25-2.46,5.58-5.91,5.59-11.43,0-22.87,0-34.3,0-3.44,0-5.9-2.33-5.91-5.58-.01-3.33,2.43-5.65,5.97-5.65,5.72,0,11.43,0,17.15,0Z"/><path class="cls-1" d="M106.43,60.18c-5.67,0-11.34,0-17.01,0-3.57,0-6.04-2.28-6.05-5.58-.01-3.33,2.43-5.65,5.97-5.66,11.39,0,22.77,0,34.16,0,3.54,0,5.99,2.32,5.98,5.65,0,3.3-2.48,5.59-6.05,5.59-5.67,0-11.34,0-17.01,0Z"/><path class="cls-1" d="M56.65,62.46c6.99-.4,13.19,1.64,18.48,6.28,3.08,2.7,2.66,7.32-.76,9.28-2.05,1.18-4.53,1.03-6.42-.58-5.35-4.58-11.48-4.47-17.75-2.84-1.6,.42-3.09,1.54-4.44,2.58-2.79,2.16-6.17,2.08-8.29-.38-2.15-2.5-1.76-5.97,1-8.31,5.24-4.45,11.32-6.41,18.18-6.03Z"/><path class="cls-1" d="M50.4,119.24c-3,0-6,0-9,0-3.41,0-5.84-2.37-5.83-5.65,0-3.2,2.45-5.58,5.76-5.58,6.09-.01,12.18,0,18.27,0,3.32,0,5.76,2.38,5.77,5.58,.01,3.28-2.43,5.65-5.84,5.66-3.05,0-6.09,0-9.14,0Z"/></svg>